<svg xmlns="http://www.w3.org/2000/svg" width="980" height="440" viewBox="0 0 980 440" preserveAspectRatio="xMidYMid meet" style="overflow:visible"><rect x="0" y="0" width="100%" height="100%" fill="#ffffff"/><rect x="600" y="10" width="15" height="15" fill="#15803d" rx="2" ry="2"/><text x="620" y="22" font-size="12" fill="#0f172a">Correct</text><rect x="680" y="10" width="15" height="15" fill="#b91c1c" rx="2" ry="2"/><text x="700" y="22" font-size="12" fill="#0f172a">Wrong</text><rect x="760" y="10" width="15" height="15" fill="#9ca3af" rx="2" ry="2"/><text x="780" y="22" font-size="12" fill="#0f172a">Unanswered</text><text x="30" y="146.0" font-size="12" text-anchor="middle" fill="#0f172a" transform="rotate(-90 30 146.0)">Percentage (%)</text><text x="470.0" y="420" font-size="12" text-anchor="middle" fill="#0f172a">Topics</text><line x1="60" y1="252.0" x2="780" y2="252.0" stroke="#e5e7eb" stroke-width="1"/><text x="52" y="257.0" font-size="10" text-anchor="end" fill="#374151">0</text><line x1="60" y1="199.0" x2="780" y2="199.0" stroke="#e5e7eb" stroke-width="1"/><text x="52" y="204.0" font-size="10" text-anchor="end" fill="#374151">25</text><line x1="60" y1="146.0" x2="780" y2="146.0" stroke="#e5e7eb" stroke-width="1"/><text x="52" y="151.0" font-size="10" text-anchor="end" fill="#374151">50</text><line x1="60" y1="93.0" x2="780" y2="93.0" stroke="#e5e7eb" stroke-width="1"/><text x="52" y="98.0" font-size="10" text-anchor="end" fill="#374151">75</text><line x1="60" y1="40.0" x2="780" y2="40.0" stroke="#e5e7eb" stroke-width="1"/><text x="52" y="45.0" font-size="10" text-anchor="end" fill="#374151">100</text><rect x="60" y="119.5" width="106" height="132.5" fill="#15803d" rx="4" ry="4" stroke="#ffffff" stroke-width="0.6"/><rect x="60" y="66.5" width="106" height="53.0" fill="#b91c1c" rx="4" ry="4" stroke="#ffffff" stroke-width="0.6"/><rect x="60" y="40.0" width="106" height="26.5" fill="#9ca3af" rx="4" ry="4" stroke="#ffffff" stroke-width="0.6"/><text x="113.0" y="129.5" font-size="9" text-anchor="middle" fill="#ffffff">62%</text><text x="113.0" y="76.5" font-size="9" text-anchor="middle" fill="#ffffff">25%</text><text x="113.0" y="50.0" font-size="9" text-anchor="middle" fill="#ffffff">12%</text><text x="113.0" y="292.0" font-size="11" text-anchor="end" fill="#0f172a" transform="rotate(-45 113.0 292.0)">ML Fundamentals (5/8)</text><rect x="178" y="134.2" width="106" height="117.8" fill="#15803d" rx="4" ry="4" stroke="#ffffff" stroke-width="0.6"/><rect x="178" y="110.7" width="106" height="23.6" fill="#b91c1c" rx="4" ry="4" stroke="#ffffff" stroke-width="0.6"/><rect x="178" y="40.0" width="106" height="70.7" fill="#9ca3af" rx="4" ry="4" stroke="#ffffff" stroke-width="0.6"/><text x="231.0" y="144.2" font-size="9" text-anchor="middle" fill="#ffffff">55%</text><text x="231.0" y="120.7" font-size="9" text-anchor="middle" fill="#ffffff">11%</text><text x="231.0" y="50.0" font-size="9" text-anchor="middle" fill="#ffffff">33%</text><text x="231.0" y="292.0" font-size="11" text-anchor="end" fill="#0f172a" transform="rotate(-45 231.0 292.0)">Supervised Learning (5/9)</text><rect x="296" y="93.0" width="106" height="159.0" fill="#15803d" rx="4" ry="4" stroke="#ffffff" stroke-width="0.6"/><rect x="296" y="40.0" width="106" height="53.0" fill="#b91c1c" rx="4" ry="4" stroke="#ffffff" stroke-width="0.6"/><rect x="296" y="40.0" width="106" height="0.0" fill="#9ca3af" rx="4" ry="4" stroke="#ffffff" stroke-width="0.6"/><text x="349.0" y="103.0" font-size="9" text-anchor="middle" fill="#ffffff">75%</text><text x="349.0" y="50.0" font-size="9" text-anchor="middle" fill="#ffffff">25%</text><text x="349.0" y="292.0" font-size="11" text-anchor="end" fill="#0f172a" transform="rotate(-45 349.0 292.0)">Regression (6/8)</text><rect x="414" y="146.0" width="106" height="106.0" fill="#15803d" rx="4" ry="4" stroke="#ffffff" stroke-width="0.6"/><rect x="414" y="75.3" width="106" height="70.7" fill="#b91c1c" rx="4" ry="4" stroke="#ffffff" stroke-width="0.6"/><rect x="414" y="40.0" width="106" height="35.3" fill="#9ca3af" rx="4" ry="4" stroke="#ffffff" stroke-width="0.6"/><text x="467.0" y="156.0" font-size="9" text-anchor="middle" fill="#ffffff">50%</text><text x="467.0" y="85.3" font-size="9" text-anchor="middle" fill="#ffffff">33%</text><text x="467.0" y="50.0" font-size="9" text-anchor="middle" fill="#ffffff">16%</text><text x="467.0" y="292.0" font-size="11" text-anchor="end" fill="#0f172a" transform="rotate(-45 467.0 292.0)">Unsupervised Learning (6/12)</text><rect x="532" y="155.6" width="106" height="96.4" fill="#15803d" rx="4" ry="4" stroke="#ffffff" stroke-width="0.6"/><rect x="532" y="155.6" width="106" height="0.0" fill="#b91c1c" rx="4" ry="4" stroke="#ffffff" stroke-width="0.6"/><rect x="532" y="40.0" width="106" height="115.6" fill="#9ca3af" rx="4" ry="4" stroke="#ffffff" stroke-width="0.6"/><text x="585.0" y="165.6" font-size="9" text-anchor="middle" fill="#ffffff">45%</text><text x="585.0" y="50.0" font-size="9" text-anchor="middle" fill="#ffffff">54%</text><text x="585.0" y="292.0" font-size="11" text-anchor="end" fill="#0f172a" transform="rotate(-45 585.0 292.0)">Model Evaluation (5/11)</text><rect x="650" y="172.5" width="106" height="79.5" fill="#15803d" rx="4" ry="4" stroke="#ffffff" stroke-width="0.6"/><rect x="650" y="146.0" width="106" height="26.5" fill="#b91c1c" rx="4" ry="4" stroke="#ffffff" stroke-width="0.6"/><rect x="650" y="40.0" width="106" height="106.0" fill="#9ca3af" rx="4" ry="4" stroke="#ffffff" stroke-width="0.6"/><text x="703.0" y="182.5" font-size="9" text-anchor="middle" fill="#ffffff">37%</text><text x="703.0" y="156.0" font-size="9" text-anchor="middle" fill="#ffffff">12%</text><text x="703.0" y="50.0" font-size="9" text-anchor="middle" fill="#ffffff">50%</text><text x="703.0" y="292.0" font-size="11" text-anchor="end" fill="#0f172a" transform="rotate(-45 703.0 292.0)">Classification (3/8)</text><rect x="768" y="163.7" width="106" height="88.3" fill="#15803d" rx="4" ry="4" stroke="#ffffff" stroke-width="0.6"/><rect x="768" y="163.7" width="106" height="0.0" fill="#b91c1c" rx="4" ry="4" stroke="#ffffff" stroke-width="0.6"/><rect x="768" y="40.0" width="106" height="123.7" fill="#9ca3af" rx="4" ry="4" stroke="#ffffff" stroke-width="0.6"/><text x="821.0" y="173.7" font-size="9" text-anchor="middle" fill="#ffffff">41%</text><text x="821.0" y="50.0" font-size="9" text-anchor="middle" fill="#ffffff">58%</text><text x="821.0" y="292.0" font-size="11" text-anchor="end" fill="#0f172a" transform="rotate(-45 821.0 292.0)">Model Theory (5/12)</text></svg>