<svg xmlns="http://www.w3.org/2000/svg" width="400" height="400" viewBox="0 0 400 400"><rect width="100%" height="100%" fill="#f3f4f6"/><circle cx="200.00" cy="200.00" r="36.00" fill="none" stroke="#d1d5db" stroke-width="1"/><polygon points="200.00,164.00 231.18,218.00 168.82,218.00" fill="none" stroke="#d1d5db" stroke-width="1"/><circle cx="200.00" cy="200.00" r="72.00" fill="none" stroke="#d1d5db" stroke-width="1"/><polygon points="200.00,128.00 262.35,236.00 137.65,236.00" fill="none" stroke="#d1d5db" stroke-width="1"/><circle cx="200.00" cy="200.00" r="108.00" fill="none" stroke="#d1d5db" stroke-width="1"/><polygon points="200.00,92.00 293.53,254.00 106.47,254.00" fill="none" stroke="#d1d5db" stroke-width="1"/><circle cx="200.00" cy="200.00" r="144.00" fill="none" stroke="#d1d5db" stroke-width="1"/><polygon points="200.00,56.00 324.71,272.00 75.29,272.00" fill="none" stroke="#d1d5db" stroke-width="1"/><line x1="200" y1="200" x2="200.00" y2="56.00" stroke="#9ca3af" stroke-width="1"/><line x1="200" y1="200" x2="324.71" y2="272.00" stroke="#9ca3af" stroke-width="1"/><line x1="200" y1="200" x2="75.29" y2="272.00" stroke="#9ca3af" stroke-width="1"/><polygon points="200.00,142.40 274.82,243.20 87.76,264.80" fill="rgba(21,128,61,0.20)" stroke="#15803d" stroke-width="2"/><text x="200.00" y="160.00" font-size="10" text-anchor="middle" fill="#0f172a">25</text><text x="200.00" y="124.00" font-size="10" text-anchor="middle" fill="#0f172a">50</text><text x="200.00" y="88.00" font-size="10" text-anchor="middle" fill="#0f172a">75</text><text x="200.00" y="52.00" font-size="10" text-anchor="middle" fill="#0f172a">100</text><text x="200.00" y="24.32" font-size="11" text-anchor="middle" fill="#0f172a">Reproduction</text><text x="352.14" y="287.84" font-size="11" text-anchor="middle" fill="#0f172a">Application</text><text x="47.86" y="287.84" font-size="11" text-anchor="middle" fill="#0f172a">Analysis</text></svg>