<svg class="main-svg" xmlns="http://www.w3.org/2000/svg" xmlns:xlink="http://www.w3.org/1999/xlink" width="1200" height="480" style="" viewBox="0 0 1200 480"><rect x="0" y="0" width="1200" height="480" style="fill: rgb(0, 0, 0); fill-opacity: 0;"/><defs id="defs-1c6277"><g class="clips"><clipPath id="clip1c6277xyplot" class="plotclip"><rect width="1000" height="410"/></clipPath><clipPath class="axesclip" id="clip1c6277x"><rect x="100" y="0" width="1000" height="480"/></clipPath><clipPath class="axesclip" id="clip1c6277y"><rect x="0" y="20" width="1200" height="410"/></clipPath><clipPath class="axesclip" id="clip1c6277xy"><rect x="100" y="20" width="1000" height="410"/></clipPath></g><g class="gradients"/><g class="patterns"/></defs><g class="bglayer"><rect class="bg" x="100" y="20" width="1000" height="410" style="fill: rgb(0, 0, 0); fill-opacity: 0; stroke-width: 0;"/></g><g class="layer-below"><g class="imagelayer"/><g class="shapelayer"/></g><g class="cartesianlayer"><g class="subplot xy"><g class="layer-subplot"><g class="shapelayer"><g class="shape-group" data-index="0" clip-path="url(#clip1c6277xy)"><path data-index="0" fill-rule="evenodd" d="M 183.32999999999998,430 L 350,430 Q 400,430 400,410.48 L 400,137.14 Q 400,117.62 350,117.62 L 183.32999999999998,117.62 Q 133.32999999999998,117.62 133.32999999999998,137.14 L 133.32999999999998,410.48 Q 133.32999999999998,430 183.32999999999998,430 Z" style="opacity: 1; stroke: rgb(0, 0, 0); stroke-opacity: 0; fill: rgb(144, 238, 144); fill-opacity: 0.3; stroke-width: 0px;"/></g><g class="shape-group" data-index="1" clip-path="url(#clip1c6277xy)"><path data-index="1" fill-rule="evenodd" d="M 516.6700000000001,430 L 683.33,430 Q 733.33,430 733.33,410.48 L 733.33,221.75 Q 733.33,202.22 683.33,202.22 L 516.6700000000001,202.22 Q 466.67,202.22 466.67,221.75 L 466.67,410.48 Q 466.67,430 516.6700000000001,430 Z" style="opacity: 1; stroke: rgb(0, 0, 0); stroke-opacity: 0; fill: rgb(211, 211, 211); fill-opacity: 0.3; stroke-width: 0px;"/></g><g class="shape-group" data-index="2" clip-path="url(#clip1c6277xy)"><path data-index="2" fill-rule="evenodd" d="M 850,430 L 1016.67,430 Q 1066.67,430 1066.67,410.48 L 1066.67,221.75 Q 1066.67,202.22 1016.67,202.22 L 850,202.22 Q 800,202.22 800,221.75 L 800,410.48 Q 800,430 850,430 Z" style="opacity: 1; stroke: rgb(0, 0, 0); stroke-opacity: 0; fill: rgb(255, 182, 193); fill-opacity: 0.3; stroke-width: 0px;"/></g></g><g class="imagelayer"/></g><g class="minor-gridlayer"><g class="x"/><g class="y"/></g><g class="gridlayer"><g class="x"/><g class="y"/></g><g class="zerolinelayer"/><g class="layer-between"><g class="shapelayer"/><g class="imagelayer"/></g><path class="xlines-below"/><path class="ylines-below"/><g class="overlines-below"/><g class="xaxislayer-below"/><g class="yaxislayer-below"/><g class="overaxes-below"/><g class="overplot"><g class="xy" transform="translate(100,20)" clip-path="url(#clip1c6277xyplot)"><g class="scatterlayer mlayer"><g class="trace scatter traced22cd9" style="stroke-miterlimit: 2; opacity: 1;"><g class="fills"/><g class="errorbars"/><g class="lines"/><g class="points"><path class="point plotly-customdata" transform="translate(166.67,344.92)" d="M10,0A10,10 0 1,1 0,-10A10,10 0 0,1 10,0Z" style="opacity: 1; stroke-width: 0px; fill: rgb(0, 128, 0); fill-opacity: 1;"/><path class="point plotly-customdata" transform="translate(166.67,260.32)" d="M10,0A10,10 0 1,1 0,-10A10,10 0 0,1 10,0Z" style="opacity: 1; stroke-width: 0px; fill: rgb(0, 128, 0); fill-opacity: 1;"/><path class="point plotly-customdata" transform="translate(166.67,175.71)" d="M10,0A10,10 0 1,1 0,-10A10,10 0 0,1 10,0Z" style="opacity: 1; stroke-width: 0px; fill: rgb(0, 128, 0); fill-opacity: 1;"/></g><g class="text"><g class="textpoint" transform="translate(0,-16.5)"><text x="166.67" y="344.92" text-anchor="middle" style="font-family: 'Open Sans', verdana, arial, sans-serif; font-size: 12px; fill: rgb(0, 0, 0); fill-opacity: 1; white-space: pre;">Network Architectures</text></g><g class="textpoint" transform="translate(0,-16.5)"><text x="166.67" y="260.32" text-anchor="middle" style="font-family: 'Open Sans', verdana, arial, sans-serif; font-size: 12px; fill: rgb(0, 0, 0); fill-opacity: 1; white-space: pre;">Generative Models</text></g><g class="textpoint" transform="translate(0,-16.5)"><text x="166.67" y="175.71" text-anchor="middle" style="font-family: 'Open Sans', verdana, arial, sans-serif; font-size: 12px; fill: rgb(0, 0, 0); fill-opacity: 1; white-space: pre;">Computer Vision</text></g></g></g><g class="trace scatter traceecc1d1" style="stroke-miterlimit: 2; opacity: 1;"><g class="fills"/><g class="errorbars"/><g class="lines"/><g class="points"><path class="point plotly-customdata" transform="translate(500,344.92)" d="M10,0A10,10 0 1,1 0,-10A10,10 0 0,1 10,0Z" style="opacity: 1; stroke-width: 0px; fill: rgb(128, 128, 128); fill-opacity: 1;"/><path class="point plotly-customdata" transform="translate(500,260.32)" d="M10,0A10,10 0 1,1 0,-10A10,10 0 0,1 10,0Z" style="opacity: 1; stroke-width: 0px; fill: rgb(128, 128, 128); fill-opacity: 1;"/></g><g class="text"><g class="textpoint" transform="translate(0,-16.5)"><text x="500" y="344.92" text-anchor="middle" style="font-family: 'Open Sans', verdana, arial, sans-serif; font-size: 12px; fill: rgb(0, 0, 0); fill-opacity: 1; white-space: pre;">Sequence Processing</text></g><g class="textpoint" transform="translate(0,-16.5)"><text x="500" y="260.32" text-anchor="middle" style="font-family: 'Open Sans', verdana, arial, sans-serif; font-size: 12px; fill: rgb(0, 0, 0); fill-opacity: 1; white-space: pre;">Neural Network Fundamentals</text></g></g></g><g class="trace scatter trace6fdf8a" style="stroke-miterlimit: 2; opacity: 1;"><g class="fills"/><g class="errorbars"/><g class="lines"/><g class="points"><path class="point plotly-customdata" transform="translate(833.33,344.92)" d="M10,0A10,10 0 1,1 0,-10A10,10 0 0,1 10,0Z" style="opacity: 1; stroke-width: 0px; fill: rgb(255, 0, 0); fill-opacity: 1;"/><path class="point plotly-customdata" transform="translate(833.33,260.32)" d="M10,0A10,10 0 1,1 0,-10A10,10 0 0,1 10,0Z" style="opacity: 1; stroke-width: 0px; fill: rgb(255, 0, 0); fill-opacity: 1;"/></g><g class="text"><g class="textpoint" transform="translate(0,-16.5)"><text x="833.33" y="344.92" text-anchor="middle" style="font-family: 'Open Sans', verdana, arial, sans-serif; font-size: 12px; fill: rgb(0, 0, 0); fill-opacity: 1; white-space: pre;">Transfer Learning</text></g><g class="textpoint" transform="translate(0,-16.5)"><text x="833.33" y="260.32" text-anchor="middle" style="font-family: 'Open Sans', verdana, arial, sans-serif; font-size: 12px; fill: rgb(0, 0, 0); fill-opacity: 1; white-space: pre;">Training and Optimization</text></g></g></g></g></g></g><g class="zerolinelayer-above"/><path class="xlines-above crisp" d="M0,0" style="fill: none;"/><path class="ylines-above crisp" d="M0,0" style="fill: none;"/><g class="overlines-above"/><g class="xaxislayer-above"><g class="xtick"><text text-anchor="middle" x="0" y="445" transform="translate(266.66999999999996,0)" style="font-family: 'Open Sans', verdana, arial, sans-serif; font-size: 14px; fill: rgb(68, 68, 68); fill-opacity: 1; font-weight: bold; white-space: pre;">Understood ✓</text></g><g class="xtick"><text text-anchor="middle" x="0" y="445" style="font-family: 'Open Sans', verdana, arial, sans-serif; font-size: 14px; fill: rgb(68, 68, 68); fill-opacity: 1; font-weight: bold; white-space: pre;" transform="translate(600,0)">Not Attempted</text></g><g class="xtick"><text text-anchor="middle" x="0" y="445" style="font-family: 'Open Sans', verdana, arial, sans-serif; font-size: 14px; fill: rgb(68, 68, 68); fill-opacity: 1; font-weight: bold; white-space: pre;" transform="translate(933.33,0)">Not Understood ✗</text></g></g><g class="yaxislayer-above"/><g class="overaxes-above"/></g></g><g class="polarlayer"/><g class="smithlayer"/><g class="ternarylayer"/><g class="geolayer"/><g class="funnelarealayer"/><g class="pielayer"/><g class="iciclelayer"/><g class="treemaplayer"/><g class="sunburstlayer"/><g class="glimages"/><defs id="topdefs-1c6277"><g class="clips"/></defs><g class="layer-above"><g class="imagelayer"/><g class="shapelayer"/></g><g class="infolayer"><g class="g-gtitle"/><g class="g-xtitle"/><g class="g-ytitle"/></g></svg>