<svg class="main-svg" xmlns="http://www.w3.org/2000/svg" xmlns:xlink="http://www.w3.org/1999/xlink" width="1200" height="648" style="" viewBox="0 0 1200 648"><rect x="0" y="0" width="1200" height="648" style="fill: rgb(0, 0, 0); fill-opacity: 0;"/><defs id="defs-2d3d7c"><g class="clips"><clipPath id="clip2d3d7cxyplot" class="plotclip"><rect width="1000" height="578"/></clipPath><clipPath class="axesclip" id="clip2d3d7cx"><rect x="100" y="0" width="1000" height="648"/></clipPath><clipPath class="axesclip" id="clip2d3d7cy"><rect x="0" y="20" width="1200" height="578"/></clipPath><clipPath class="axesclip" id="clip2d3d7cxy"><rect x="100" y="20" width="1000" height="578"/></clipPath></g><g class="gradients"/><g class="patterns"/></defs><g class="bglayer"><rect class="bg" x="100" y="20" width="1000" height="578" style="fill: rgb(0, 0, 0); fill-opacity: 0; stroke-width: 0;"/></g><g class="layer-below"><g class="imagelayer"/><g class="shapelayer"/></g><g class="cartesianlayer"><g class="subplot xy"><g class="layer-subplot"><g class="shapelayer"><g class="shape-group" data-index="0" clip-path="url(#clip2d3d7cxy)"><path data-index="0" fill-rule="evenodd" d="M 183.32999999999998,598 L 350,598 Q 400,598 400,591.98 L 400,58.13 Q 400,52.11 350,52.11 L 183.32999999999998,52.11 Q 133.32999999999998,52.11 133.32999999999998,58.13 L 133.32999999999998,591.98 Q 133.32999999999998,598 183.32999999999998,598 Z" style="opacity: 1; stroke: rgb(0, 0, 0); stroke-opacity: 0; fill: rgb(144, 238, 144); fill-opacity: 0.3; stroke-width: 0px;"/></g><g class="shape-group" data-index="1" clip-path="url(#clip2d3d7cxy)"><path data-index="1" fill-rule="evenodd" d="M 516.6700000000001,598 L 683.33,598 Q 733.33,598 733.33,591.98 L 733.33,411.35 Q 733.33,405.33 683.33,405.33 L 516.6700000000001,405.33 Q 466.67,405.33 466.67,411.35 L 466.67,591.98 Q 466.67,598 516.6700000000001,598 Z" style="opacity: 1; stroke: rgb(0, 0, 0); stroke-opacity: 0; fill: rgb(211, 211, 211); fill-opacity: 0.3; stroke-width: 0px;"/></g><g class="shape-group" data-index="2" clip-path="url(#clip2d3d7cxy)"><path data-index="2" fill-rule="evenodd" d="M 850,598 L 1016.67,598 Q 1066.67,598 1066.67,591.98 L 1066.67,411.35 Q 1066.67,405.33 1016.67,405.33 L 850,405.33 Q 800,405.33 800,411.35 L 800,591.98 Q 800,598 850,598 Z" style="opacity: 1; stroke: rgb(0, 0, 0); stroke-opacity: 0; fill: rgb(255, 182, 193); fill-opacity: 0.3; stroke-width: 0px;"/></g></g><g class="imagelayer"/></g><g class="minor-gridlayer"><g class="x"/><g class="y"/></g><g class="gridlayer"><g class="x"/><g class="y"/></g><g class="zerolinelayer"/><g class="layer-between"><g class="shapelayer"/><g class="imagelayer"/></g><path class="xlines-below"/><path class="ylines-below"/><g class="overlines-below"/><g class="xaxislayer-below"/><g class="yaxislayer-below"/><g class="overaxes-below"/><g class="overplot"><g class="xy" transform="translate(100,20)" clip-path="url(#clip2d3d7cxyplot)"><g class="scatterlayer mlayer"><g class="trace scatter trace7afc2d" style="stroke-miterlimit: 2; opacity: 1;"><g class="fills"/><g class="errorbars"/><g class="lines"/><g class="points"><path class="point plotly-customdata" transform="translate(166.67,557.93)" d="M10,0A10,10 0 1,1 0,-10A10,10 0 0,1 10,0Z" style="opacity: 1; stroke-width: 0px; fill: rgb(0, 128, 0); fill-opacity: 1;"/><path class="point plotly-customdata" transform="translate(166.67,513.78)" d="M10,0A10,10 0 1,1 0,-10A10,10 0 0,1 10,0Z" style="opacity: 1; stroke-width: 0px; fill: rgb(0, 128, 0); fill-opacity: 1;"/><path class="point plotly-customdata" transform="translate(166.67,469.63)" d="M10,0A10,10 0 1,1 0,-10A10,10 0 0,1 10,0Z" style="opacity: 1; stroke-width: 0px; fill: rgb(0, 128, 0); fill-opacity: 1;"/><path class="point plotly-customdata" transform="translate(166.67,425.47)" d="M10,0A10,10 0 1,1 0,-10A10,10 0 0,1 10,0Z" style="opacity: 1; stroke-width: 0px; fill: rgb(0, 128, 0); fill-opacity: 1;"/><path class="point plotly-customdata" transform="translate(166.67,381.32)" d="M10,0A10,10 0 1,1 0,-10A10,10 0 0,1 10,0Z" style="opacity: 1; stroke-width: 0px; fill: rgb(0, 128, 0); fill-opacity: 1;"/><path class="point plotly-customdata" transform="translate(166.67,337.17)" d="M10,0A10,10 0 1,1 0,-10A10,10 0 0,1 10,0Z" style="opacity: 1; stroke-width: 0px; fill: rgb(0, 128, 0); fill-opacity: 1;"/><path class="point plotly-customdata" transform="translate(166.67,293.01)" d="M10,0A10,10 0 1,1 0,-10A10,10 0 0,1 10,0Z" style="opacity: 1; stroke-width: 0px; fill: rgb(0, 128, 0); fill-opacity: 1;"/><path class="point plotly-customdata" transform="translate(166.67,248.86)" d="M10,0A10,10 0 1,1 0,-10A10,10 0 0,1 10,0Z" style="opacity: 1; stroke-width: 0px; fill: rgb(0, 128, 0); fill-opacity: 1;"/><path class="point plotly-customdata" transform="translate(166.67,204.71)" d="M10,0A10,10 0 1,1 0,-10A10,10 0 0,1 10,0Z" style="opacity: 1; stroke-width: 0px; fill: rgb(0, 128, 0); fill-opacity: 1;"/><path class="point plotly-customdata" transform="translate(166.67,160.56)" d="M10,0A10,10 0 1,1 0,-10A10,10 0 0,1 10,0Z" style="opacity: 1; stroke-width: 0px; fill: rgb(0, 128, 0); fill-opacity: 1;"/><path class="point plotly-customdata" transform="translate(166.67,116.4)" d="M10,0A10,10 0 1,1 0,-10A10,10 0 0,1 10,0Z" style="opacity: 1; stroke-width: 0px; fill: rgb(0, 128, 0); fill-opacity: 1;"/><path class="point plotly-customdata" transform="translate(166.67,72.25)" d="M10,0A10,10 0 1,1 0,-10A10,10 0 0,1 10,0Z" style="opacity: 1; stroke-width: 0px; fill: rgb(0, 128, 0); fill-opacity: 1;"/></g><g class="text"><g class="textpoint" transform="translate(0,-16.5)"><text x="166.67" y="557.93" text-anchor="middle" style="font-family: 'Open Sans', verdana, arial, sans-serif; font-size: 12px; fill: rgb(0, 0, 0); fill-opacity: 1; white-space: pre;">Spatial Reduction</text></g><g class="textpoint" transform="translate(0,-16.5)"><text x="166.67" y="513.78" text-anchor="middle" style="font-family: 'Open Sans', verdana, arial, sans-serif; font-size: 12px; fill: rgb(0, 0, 0); fill-opacity: 1; white-space: pre;">Sequential Modeling</text></g><g class="textpoint" transform="translate(0,-16.5)"><text x="166.67" y="469.63" text-anchor="middle" style="font-family: 'Open Sans', verdana, arial, sans-serif; font-size: 12px; fill: rgb(0, 0, 0); fill-opacity: 1; white-space: pre;">Parallel Processing</text></g><g class="textpoint" transform="translate(0,-16.5)"><text x="166.67" y="425.47" text-anchor="middle" style="font-family: 'Open Sans', verdana, arial, sans-serif; font-size: 12px; fill: rgb(0, 0, 0); fill-opacity: 1; white-space: pre;">Overfitting Diagnosis</text></g><g class="textpoint" transform="translate(0,-16.5)"><text x="166.67" y="381.32" text-anchor="middle" style="font-family: 'Open Sans', verdana, arial, sans-serif; font-size: 12px; fill: rgb(0, 0, 0); fill-opacity: 1; white-space: pre;">Optimization Methods</text></g><g class="textpoint" transform="translate(0,-16.5)"><text x="166.67" y="337.17" text-anchor="middle" style="font-family: 'Open Sans', verdana, arial, sans-serif; font-size: 12px; fill: rgb(0, 0, 0); fill-opacity: 1; white-space: pre;">Optimization Dynamics</text></g><g class="textpoint" transform="translate(0,-16.5)"><text x="166.67" y="293.01" text-anchor="middle" style="font-family: 'Open Sans', verdana, arial, sans-serif; font-size: 12px; fill: rgb(0, 0, 0); fill-opacity: 1; white-space: pre;">Learning Paradigms</text></g><g class="textpoint" transform="translate(0,-16.5)"><text x="166.67" y="248.86" text-anchor="middle" style="font-family: 'Open Sans', verdana, arial, sans-serif; font-size: 12px; fill: rgb(0, 0, 0); fill-opacity: 1; white-space: pre;">Gradient Issues</text></g><g class="textpoint" transform="translate(0,-16.5)"><text x="166.67" y="204.71" text-anchor="middle" style="font-family: 'Open Sans', verdana, arial, sans-serif; font-size: 12px; fill: rgb(0, 0, 0); fill-opacity: 1; white-space: pre;">Gradient Flow</text></g><g class="textpoint" transform="translate(0,-16.5)"><text x="166.67" y="160.56" text-anchor="middle" style="font-family: 'Open Sans', verdana, arial, sans-serif; font-size: 12px; fill: rgb(0, 0, 0); fill-opacity: 1; white-space: pre;">Detection Architectures</text></g><g class="textpoint" transform="translate(0,-16.5)"><text x="166.67" y="116.4" text-anchor="middle" style="font-family: 'Open Sans', verdana, arial, sans-serif; font-size: 12px; fill: rgb(0, 0, 0); fill-opacity: 1; white-space: pre;">CNN Architecture</text></g><g class="textpoint" transform="translate(0,-16.5)"><text x="166.67" y="72.25" text-anchor="middle" style="font-family: 'Open Sans', verdana, arial, sans-serif; font-size: 12px; fill: rgb(0, 0, 0); fill-opacity: 1; white-space: pre;">Activation Functions</text></g></g></g><g class="trace scatter trace312afa" style="stroke-miterlimit: 2; opacity: 1;"><g class="fills"/><g class="errorbars"/><g class="lines"/><g class="points"><path class="point plotly-customdata" transform="translate(500,557.93)" d="M10,0A10,10 0 1,1 0,-10A10,10 0 0,1 10,0Z" style="opacity: 1; stroke-width: 0px; fill: rgb(128, 128, 128); fill-opacity: 1;"/><path class="point plotly-customdata" transform="translate(500,513.78)" d="M10,0A10,10 0 1,1 0,-10A10,10 0 0,1 10,0Z" style="opacity: 1; stroke-width: 0px; fill: rgb(128, 128, 128); fill-opacity: 1;"/><path class="point plotly-customdata" transform="translate(500,469.63)" d="M10,0A10,10 0 1,1 0,-10A10,10 0 0,1 10,0Z" style="opacity: 1; stroke-width: 0px; fill: rgb(128, 128, 128); fill-opacity: 1;"/><path class="point plotly-customdata" transform="translate(500,425.47)" d="M10,0A10,10 0 1,1 0,-10A10,10 0 0,1 10,0Z" style="opacity: 1; stroke-width: 0px; fill: rgb(128, 128, 128); fill-opacity: 1;"/></g><g class="text"><g class="textpoint" transform="translate(0,-16.5)"><text x="500" y="557.93" text-anchor="middle" style="font-family: 'Open Sans', verdana, arial, sans-serif; font-size: 12px; fill: rgb(0, 0, 0); fill-opacity: 1; white-space: pre;">Temporal Dependencies</text></g><g class="textpoint" transform="translate(0,-16.5)"><text x="500" y="513.78" text-anchor="middle" style="font-family: 'Open Sans', verdana, arial, sans-serif; font-size: 12px; fill: rgb(0, 0, 0); fill-opacity: 1; white-space: pre;">Feature Learning Hierarchy</text></g><g class="textpoint" transform="translate(0,-16.5)"><text x="500" y="469.63" text-anchor="middle" style="font-family: 'Open Sans', verdana, arial, sans-serif; font-size: 12px; fill: rgb(0, 0, 0); fill-opacity: 1; white-space: pre;">Batch Size Optimization</text></g><g class="textpoint" transform="translate(0,-16.5)"><text x="500" y="425.47" text-anchor="middle" style="font-family: 'Open Sans', verdana, arial, sans-serif; font-size: 12px; fill: rgb(0, 0, 0); fill-opacity: 1; white-space: pre;">Attention Mechanism</text></g></g></g><g class="trace scatter trace0a2431" style="stroke-miterlimit: 2; opacity: 1;"><g class="fills"/><g class="errorbars"/><g class="lines"/><g class="points"><path class="point plotly-customdata" transform="translate(833.33,557.93)" d="M10,0A10,10 0 1,1 0,-10A10,10 0 0,1 10,0Z" style="opacity: 1; stroke-width: 0px; fill: rgb(255, 0, 0); fill-opacity: 1;"/><path class="point plotly-customdata" transform="translate(833.33,513.78)" d="M10,0A10,10 0 1,1 0,-10A10,10 0 0,1 10,0Z" style="opacity: 1; stroke-width: 0px; fill: rgb(255, 0, 0); fill-opacity: 1;"/><path class="point plotly-customdata" transform="translate(833.33,469.63)" d="M10,0A10,10 0 1,1 0,-10A10,10 0 0,1 10,0Z" style="opacity: 1; stroke-width: 0px; fill: rgb(255, 0, 0); fill-opacity: 1;"/><path class="point plotly-customdata" transform="translate(833.33,425.47)" d="M10,0A10,10 0 1,1 0,-10A10,10 0 0,1 10,0Z" style="opacity: 1; stroke-width: 0px; fill: rgb(255, 0, 0); fill-opacity: 1;"/></g><g class="text"><g class="textpoint" transform="translate(0,-16.5)"><text x="833.33" y="557.93" text-anchor="middle" style="font-family: 'Open Sans', verdana, arial, sans-serif; font-size: 12px; fill: rgb(0, 0, 0); fill-opacity: 1; white-space: pre;">Overfitting Prevention</text></g><g class="textpoint" transform="translate(0,-16.5)"><text x="833.33" y="513.78" text-anchor="middle" style="font-family: 'Open Sans', verdana, arial, sans-serif; font-size: 12px; fill: rgb(0, 0, 0); fill-opacity: 1; white-space: pre;">Normalization Techniques</text></g><g class="textpoint" transform="translate(0,-16.5)"><text x="833.33" y="469.63" text-anchor="middle" style="font-family: 'Open Sans', verdana, arial, sans-serif; font-size: 12px; fill: rgb(0, 0, 0); fill-opacity: 1; white-space: pre;">Layer Fine-tuning</text></g><g class="textpoint" transform="translate(0,-16.5)"><text x="833.33" y="425.47" text-anchor="middle" style="font-family: 'Open Sans', verdana, arial, sans-serif; font-size: 12px; fill: rgb(0, 0, 0); fill-opacity: 1; white-space: pre;">Class Distribution</text></g></g></g></g></g></g><g class="zerolinelayer-above"/><path class="xlines-above crisp" d="M0,0" style="fill: none;"/><path class="ylines-above crisp" d="M0,0" style="fill: none;"/><g class="overlines-above"/><g class="xaxislayer-above"><g class="xtick"><text text-anchor="middle" x="0" y="613" transform="translate(266.66999999999996,0)" style="font-family: 'Open Sans', verdana, arial, sans-serif; font-size: 14px; fill: rgb(68, 68, 68); fill-opacity: 1; font-weight: bold; white-space: pre;">Understood ✓</text></g><g class="xtick"><text text-anchor="middle" x="0" y="613" style="font-family: 'Open Sans', verdana, arial, sans-serif; font-size: 14px; fill: rgb(68, 68, 68); fill-opacity: 1; font-weight: bold; white-space: pre;" transform="translate(600,0)">Not Attempted</text></g><g class="xtick"><text text-anchor="middle" x="0" y="613" style="font-family: 'Open Sans', verdana, arial, sans-serif; font-size: 14px; fill: rgb(68, 68, 68); fill-opacity: 1; font-weight: bold; white-space: pre;" transform="translate(933.33,0)">Not Understood ✗</text></g></g><g class="yaxislayer-above"/><g class="overaxes-above"/></g></g><g class="polarlayer"/><g class="smithlayer"/><g class="ternarylayer"/><g class="geolayer"/><g class="funnelarealayer"/><g class="pielayer"/><g class="iciclelayer"/><g class="treemaplayer"/><g class="sunburstlayer"/><g class="glimages"/><defs id="topdefs-2d3d7c"><g class="clips"/></defs><g class="layer-above"><g class="imagelayer"/><g class="shapelayer"/></g><g class="infolayer"><g class="g-gtitle"/><g class="g-xtitle"/><g class="g-ytitle"/></g></svg>