<svg xmlns="http://www.w3.org/2000/svg" xmlns:xlink="http://www.w3.org/1999/xlink" contentStyleType="text/css" data-diagram-type="STATE" height="1053.75px" preserveAspectRatio="none" style="width:1837px;height:1053px;background:#FFFFFF;" version="1.1" viewBox="0 0 1837 1053" width="1837.5px" zoomAndPan="magnify"><defs/><g><g id="Normal"><rect fill="#F1F1F1" height="62.5" rx="15.625" ry="15.625" style="stroke:#181818;stroke-width:0.625;" width="88.6255" x="146.25" y="520"/><line style="stroke:#181818;stroke-width:0.625;" x1="146.25" x2="234.8755" y1="552.8711" y2="552.8711"/><text fill="#000000" font-family="sans-serif" font-size="17.5" lengthAdjust="spacing" textLength="63.6255" x="158.75" y="542.4939">Normal</text></g><g id="Panic"><rect fill="#F1F1F1" height="62.5" rx="15.625" ry="15.625" style="stroke:#181818;stroke-width:0.625;" width="71.8518" x="778.975" y="141.25"/><line style="stroke:#181818;stroke-width:0.625;" x1="778.975" x2="850.8268" y1="174.1211" y2="174.1211"/><text fill="#000000" font-family="sans-serif" font-size="17.5" lengthAdjust="spacing" textLength="46.8518" x="791.475" y="163.7439">Panic</text></g><g id="SkipReview"><rect fill="#F1F1F1" height="62.5" rx="15.625" ry="15.625" style="stroke:#181818;stroke-width:0.625;" width="125.437" x="752.175" y="422.5"/><line style="stroke:#181818;stroke-width:0.625;" x1="752.175" x2="877.612" y1="455.3711" y2="455.3711"/><text fill="#000000" font-family="sans-serif" font-size="17.5" lengthAdjust="spacing" textLength="100.437" x="764.675" y="444.9939">SkipReview</text></g><g id="BookmarkReview"><rect fill="#F1F1F1" height="62.5" rx="15.625" ry="15.625" style="stroke:#181818;stroke-width:0.625;" width="176.8774" x="726.4625" y="707.5"/><line style="stroke:#181818;stroke-width:0.625;" x1="726.4625" x2="903.3399" y1="740.3711" y2="740.3711"/><text fill="#000000" font-family="sans-serif" font-size="17.5" lengthAdjust="spacing" textLength="151.8774" x="738.9625" y="729.9939">BookmarkReview</text></g><ellipse cx="20" cy="551.25" fill="#222222" rx="12.5" ry="12.5" style="stroke:#222222;stroke-width:1.25;"/><g class="entity" data-entity="GMN2" data-source-line="32" data-uid="ent0003" id="entity_GMN2"><path d="M583.625,881.8375 L583.625,1045.6656 L1046.1653,1045.6656 L1046.1653,894.3375 L1033.6653,881.8375 L583.625,881.8375" fill="#FEFFDD" style="stroke:#181818;stroke-width:0.625;"/><path d="M1033.6653,881.8375 L1033.6653,894.3375 L1046.1653,894.3375 L1033.6653,881.8375" fill="#FEFFDD" style="stroke:#181818;stroke-width:1.25;"/><text fill="#000000" font-family="sans-serif" font-size="16.25" lengthAdjust="spacing" textLength="126.1438" x="591.125" y="903.1711">Visible buttons:</text><text fill="#000000" font-family="sans-serif" font-size="16.25" lengthAdjust="spacing" textLength="108.299" x="591.125" y="922.0871">- "Bookmark"</text><text fill="#000000" font-family="sans-serif" font-size="16.25" lengthAdjust="spacing" textLength="280.4553" x="591.125" y="941.0031">- "Later/Skip" (only if unanswered)</text><text fill="#000000" font-family="sans-serif" font-size="16.25" lengthAdjust="spacing" textLength="83.5748" x="591.125" y="959.9192">- "Lock In"</text><text fill="#000000" font-family="sans-serif" font-size="16.25" lengthAdjust="spacing" textLength="357.2937" x="591.125" y="978.8352">- "Prev/Next/Summary" only after answered</text><text fill="#000000" font-family="sans-serif" font-size="16.25" lengthAdjust="spacing" textLength="93.6359" x="591.125" y="997.7512">Interaction:</text><text fill="#000000" font-family="sans-serif" font-size="16.25" lengthAdjust="spacing" textLength="275.3217" x="591.125" y="1016.6672">- Options clickable until answered</text><text fill="#000000" font-family="sans-serif" font-size="16.25" lengthAdjust="spacing" textLength="436.2903" x="591.125" y="1035.5832">- Lock In active when an option chosen (cooldown=0)</text></g><g class="entity" data-entity="GMN5" data-source-line="43" data-uid="ent0006" id="entity_GMN5"><path d="M1249.4375,100.0375 L1249.4375,167.5 L851.125,172.5 L1249.4375,177.5 L1249.4375,244.9496 A0,0 0 0 0 1249.4375,244.9496 L1739.5742,244.9496 A0,0 0 0 0 1739.5742,244.9496 L1739.5742,112.5375 L1727.0742,100.0375 L1249.4375,100.0375 A0,0 0 0 0 1249.4375,100.0375" fill="#FEFFDD" style="stroke:#181818;stroke-width:0.625;"/><path d="M1727.0742,100.0375 L1727.0742,112.5375 L1739.5742,112.5375 L1727.0742,100.0375" fill="#FEFFDD" style="stroke:#181818;stroke-width:0.625;"/><text fill="#000000" font-family="sans-serif" font-size="16.25" lengthAdjust="spacing" textLength="126.1438" x="1256.9375" y="121.3711">Visible buttons:</text><text fill="#000000" font-family="sans-serif" font-size="16.25" lengthAdjust="spacing" textLength="108.299" x="1256.9375" y="140.2871">- "Bookmark"</text><text fill="#000000" font-family="sans-serif" font-size="16.25" lengthAdjust="spacing" textLength="169.0381" x="1256.9375" y="159.2031">- "Later/Skip" always</text><text fill="#000000" font-family="sans-serif" font-size="16.25" lengthAdjust="spacing" textLength="144.5441" x="1256.9375" y="178.1192">- "Lock In" always</text><text fill="#000000" font-family="sans-serif" font-size="16.25" lengthAdjust="spacing" textLength="276.1865" x="1256.9375" y="197.0352">- "Next/Summary" after answered</text><text fill="#000000" font-family="sans-serif" font-size="16.25" lengthAdjust="spacing" textLength="93.6359" x="1256.9375" y="215.9512">Interaction:</text><text fill="#000000" font-family="sans-serif" font-size="16.25" lengthAdjust="spacing" textLength="463.8867" x="1256.9375" y="234.8672">- Cooldowns = 0; options clickable; Lock In always active</text></g><g class="entity" data-entity="GMN8" data-source-line="53" data-uid="ent0009" id="entity_GMN8"><path d="M1284.9125,362.375 L1284.9125,448.75 L878.025,453.75 L1284.9125,458.75 L1284.9125,545.1191 A0,0 0 0 0 1284.9125,545.1191 L1704.1142,545.1191 A0,0 0 0 0 1704.1142,545.1191 L1704.1142,374.875 L1691.6142,362.375 L1284.9125,362.375 A0,0 0 0 0 1284.9125,362.375" fill="#FEFFDD" style="stroke:#181818;stroke-width:0.625;"/><path d="M1691.6142,362.375 L1691.6142,374.875 L1704.1142,374.875 L1691.6142,362.375" fill="#FEFFDD" style="stroke:#181818;stroke-width:0.625;"/><text fill="#000000" font-family="sans-serif" font-size="16.25" lengthAdjust="spacing" textLength="126.1438" x="1292.4125" y="383.7086">Visible buttons:</text><text fill="#000000" font-family="sans-serif" font-size="16.25" lengthAdjust="spacing" textLength="108.299" x="1292.4125" y="402.6246">- "Bookmark"</text><text fill="#000000" font-family="sans-serif" font-size="16.25" lengthAdjust="spacing" textLength="203.7439" x="1292.4125" y="421.5406">- "Lock In" if unanswered</text><text fill="#000000" font-family="sans-serif" font-size="16.25" lengthAdjust="spacing" textLength="216.2567" x="1292.4125" y="440.4567">- "Later/Skip" only in Panic</text><text fill="#000000" font-family="sans-serif" font-size="16.25" lengthAdjust="spacing" textLength="226.7065" x="1292.4125" y="459.3727">- "Back to current question"</text><text fill="#000000" font-family="sans-serif" font-size="16.25" lengthAdjust="spacing" textLength="288.6676" x="1292.4125" y="478.2887">- "Next skipped question" (if exists)</text><text fill="#000000" font-family="sans-serif" font-size="16.25" lengthAdjust="spacing" textLength="183.9075" x="1292.4125" y="497.2047">- No generic Prev/Next</text><text fill="#000000" font-family="sans-serif" font-size="16.25" lengthAdjust="spacing" textLength="93.6359" x="1292.4125" y="516.1207">Interaction:</text><text fill="#000000" font-family="sans-serif" font-size="16.25" lengthAdjust="spacing" textLength="392.9517" x="1292.4125" y="535.0367">- Options clickable; Lock In active if unanswered</text></g><g class="entity" data-entity="GMN11" data-source-line="65" data-uid="ent0012" id="entity_GMN11"><path d="M1159.9125,647.375 L1159.9125,733.75 L903.625,738.75 L1159.9125,743.75 L1159.9125,830.1191 A0,0 0 0 0 1159.9125,830.1191 L1829.1007,830.1191 A0,0 0 0 0 1829.1007,830.1191 L1829.1007,659.875 L1816.6007,647.375 L1159.9125,647.375 A0,0 0 0 0 1159.9125,647.375" fill="#FEFFDD" style="stroke:#181818;stroke-width:0.625;"/><path d="M1816.6007,647.375 L1816.6007,659.875 L1829.1007,659.875 L1816.6007,647.375" fill="#FEFFDD" style="stroke:#181818;stroke-width:0.625;"/><text fill="#000000" font-family="sans-serif" font-size="16.25" lengthAdjust="spacing" textLength="126.1438" x="1167.4125" y="668.7086">Visible buttons:</text><text fill="#000000" font-family="sans-serif" font-size="16.25" lengthAdjust="spacing" textLength="108.299" x="1167.4125" y="687.6246">- "Bookmark"</text><text fill="#000000" font-family="sans-serif" font-size="16.25" lengthAdjust="spacing" textLength="203.7439" x="1167.4125" y="706.5406">- "Lock In" if unanswered</text><text fill="#000000" font-family="sans-serif" font-size="16.25" lengthAdjust="spacing" textLength="205.918" x="1167.4125" y="725.4567">- "Later/Skip" like Normal</text><text fill="#000000" font-family="sans-serif" font-size="16.25" lengthAdjust="spacing" textLength="642.9382" x="1167.4125" y="744.3727">- "Previous bookmarked question" / "Next bookmarked question" (if neighbors)</text><text fill="#000000" font-family="sans-serif" font-size="16.25" lengthAdjust="spacing" textLength="226.7065" x="1167.4125" y="763.2887">- "Back to current question"</text><text fill="#000000" font-family="sans-serif" font-size="16.25" lengthAdjust="spacing" textLength="183.9075" x="1167.4125" y="782.2047">- No generic Prev/Next</text><text fill="#000000" font-family="sans-serif" font-size="16.25" lengthAdjust="spacing" textLength="93.6359" x="1167.4125" y="801.1207">Interaction:</text><text fill="#000000" font-family="sans-serif" font-size="16.25" lengthAdjust="spacing" textLength="593.855" x="1167.4125" y="820.0367">- Options clickable; Lock In active if unanswered (cooldown unless Panic)</text></g><!--link *start* to Normal--><g class="link" data-entity-1=".start." data-entity-2="Normal" data-source-line="12" data-uid="lnk3" id="link_.start._Normal"><path d="M32.8,551.25 C55.7125,551.25 100.475,551.25 138.325,551.25" fill="none" id="*start*-to-Normal" style="stroke:#181818;stroke-width:1.25;"/><polygon fill="#181818" points="145.825,551.25,134.575,546.25,139.575,551.25,134.575,556.25,145.825,551.25" style="stroke:#181818;stroke-width:1.25;"/></g><!--link Normal to Panic--><g class="link" data-entity-1="Normal" data-entity-2="Panic" data-source-line="14" data-uid="lnk4" id="link_Normal_Panic"><path d="M193.3875,519.425 C198.0875,461.1875 216.7625,337.5625 291.125,273.75 C435.75,149.625 679.0328,159.0864 771.0328,167.7239" fill="none" id="Normal-to-Panic" style="stroke:#181818;stroke-width:1.25;"/><polygon fill="#181818" points="778.5,168.425,767.7666,162.3953,772.2774,167.8408,766.8319,172.3515,778.5,168.425" style="stroke:#181818;stroke-width:1.25;"/><text fill="#000000" font-family="sans-serif" font-size="16.25" lengthAdjust="spacing" textLength="97.1033" x="361.125" y="170.7586">TimeCritical</text></g><!--link Panic to Normal--><g class="link" data-entity-1="Panic" data-entity-2="Normal" data-source-line="15" data-uid="lnk5" id="link_Panic_Normal"><path d="M778.6375,182.0875 C732.2,195.6375 648.55,222.9 583.625,260 C555.825,275.8875 553.7125,286.7875 527.375,305 C426.975,374.4 386.25,368.5375 291.125,445 C263.375,467.3 240.9031,491.5462 221.9656,513.9587" fill="none" id="Panic-to-Normal" style="stroke:#181818;stroke-width:1.25;"/><polygon fill="#181818" points="217.125,519.6875,228.205,514.3214,221.1588,514.9135,220.5666,507.8673,217.125,519.6875" style="stroke:#181818;stroke-width:1.25;"/><text fill="#000000" font-family="sans-serif" font-size="16.25" lengthAdjust="spacing" textLength="127.0404" x="346.125" y="300.0836">TimeRecovered</text></g><!--link Normal to SkipReview--><g class="link" data-entity-1="Normal" data-entity-2="SkipReview" data-source-line="17" data-uid="lnk6" id="link_Normal_SkipReview"><path d="M235.1625,540.6375 C252.5,536.6 272.7,532.15 291.125,528.75 C456.725,498.1625 646.3542,473.7374 744.4042,461.8874" fill="none" id="Normal-to-SkipReview" style="stroke:#181818;stroke-width:1.25;"/><polygon fill="#181818" points="751.85,460.9875,740.0814,457.3734,745.6452,461.7374,741.2812,467.3012,751.85,460.9875" style="stroke:#181818;stroke-width:1.25;"/><text fill="#000000" font-family="sans-serif" font-size="16.25" lengthAdjust="spacing" textLength="126.2866" x="346.125" y="486.7836">JumpToSkipped</text></g><!--link SkipReview to Normal--><g class="link" data-entity-1="SkipReview" data-entity-2="Normal" data-source-line="23" data-uid="lnk10" id="link_SkipReview_Normal"><path d="M751.5875,479.7375 C681.45,508.575 571.3375,552.1 527.375,560 C423.8375,578.5875 306.9203,567.6145 242.5703,558.9395" fill="none" id="SkipReview-to-Normal" style="stroke:#181818;stroke-width:1.25;"/><polygon fill="#181818" points="235.1375,557.9375,245.6186,564.3957,241.3315,558.7725,246.9547,554.4853,235.1375,557.9375" style="stroke:#181818;stroke-width:1.25;"/><text fill="#000000" font-family="sans-serif" font-size="16.25" lengthAdjust="spacing" textLength="234.0778" x="292.375" y="555.0836">ExitReview (Back-to-current)</text></g><!--link Normal to BookmarkReview--><g class="link" data-entity-1="Normal" data-entity-2="BookmarkReview" data-source-line="18" data-uid="lnk7" id="link_Normal_BookmarkReview"><path d="M232.9875,582.85 C250.1875,594.7875 270.8625,607.5625 291.125,616.25 C436.925,678.7375 612.4783,711.2063 718.7033,726.6813" fill="none" id="Normal-to-BookmarkReview" style="stroke:#181818;stroke-width:1.25;"/><polygon fill="#181818" points="726.125,727.7625,715.7133,721.1929,719.9403,726.8615,714.2717,731.0885,726.125,727.7625" style="stroke:#181818;stroke-width:1.25;"/><text fill="#000000" font-family="sans-serif" font-size="16.25" lengthAdjust="spacing" textLength="143.4253" x="338" y="611.3336">JumpToBookmark</text></g><!--link BookmarkReview to Normal--><g class="link" data-entity-1="BookmarkReview" data-entity-2="Normal" data-source-line="24" data-uid="lnk11" id="link_BookmarkReview_Normal"><path d="M725.95,763.225 C615.875,788.5875 425.2625,814.3375 291.125,733.75 C236.2375,700.775 211.6062,633.0477 200.4937,590.1602" fill="none" id="BookmarkReview-to-Normal" style="stroke:#181818;stroke-width:1.25;"/><polygon fill="#181818" points="198.6125,582.9,196.5941,595.0445,200.1802,588.9502,206.2744,592.5362,198.6125,582.9" style="stroke:#181818;stroke-width:1.25;"/><text fill="#000000" font-family="sans-serif" font-size="16.25" lengthAdjust="spacing" textLength="234.0778" x="292.375" y="728.8336">ExitReview (Back-to-current)</text></g><!--link SkipReview to SkipReview--><g class="link" data-entity-1="SkipReview" data-entity-2="SkipReview" data-source-line="20" data-uid="lnk8" id="link_SkipReview_SkipReview"><path d="M797.1625,422.1125 C780.425,377.5125 786.3375,322.5 814.9,322.5 C843.4625,322.5 852.0102,370.4907 835.2727,415.0907" fill="none" id="SkipReview-to-SkipReview" style="stroke:#181818;stroke-width:1.25;"/><polygon fill="#181818" points="832.6375,422.1125,841.2714,413.3365,834.8335,416.261,831.909,409.823,832.6375,422.1125" style="stroke:#181818;stroke-width:1.25;"/><text fill="#000000" font-family="sans-serif" font-size="16.25" lengthAdjust="spacing" textLength="103.324" x="763.65" y="311.3336">NextSkipped</text></g><!--link SkipReview to SkipReview--><g class="link" data-entity-1="SkipReview" data-entity-2="SkipReview" data-source-line="28" data-uid="lnk14" id="link_SkipReview_SkipReview"><path d="M791.575,422.225 C743.95,341.0625 751.725,222.5 814.9,222.5 C878.0625,222.5 889.6332,334.5939 842.0082,415.7564" fill="none" id="SkipReview-to-SkipReview-1" style="stroke:#181818;stroke-width:1.25;"/><polygon fill="#181818" points="838.2125,422.225,848.2184,415.0526,841.3756,416.8345,839.5936,409.9916,838.2125,422.225" style="stroke:#181818;stroke-width:1.25;"/><text fill="#000000" font-family="sans-serif" font-size="16.25" lengthAdjust="spacing" textLength="138.8708" x="745.525" y="211.3336">AnsweredReview</text></g><!--link BookmarkReview to BookmarkReview--><g class="link" data-entity-1="BookmarkReview" data-entity-2="BookmarkReview" data-source-line="21" data-uid="lnk9" id="link_BookmarkReview_BookmarkReview"><path d="M797.1625,707.1125 C780.425,662.5125 786.3375,607.5 814.9,607.5 C843.4625,607.5 852.0102,655.4907 835.2727,700.0907" fill="none" id="BookmarkReview-to-BookmarkReview" style="stroke:#181818;stroke-width:1.25;"/><polygon fill="#181818" points="832.6375,707.1125,841.2714,698.3365,834.8335,701.261,831.909,694.823,832.6375,707.1125" style="stroke:#181818;stroke-width:1.25;"/><text fill="#000000" font-family="sans-serif" font-size="16.25" lengthAdjust="spacing" textLength="187.5098" x="721.15" y="596.3336">Prev/Next Bookmarked</text></g><!--link BookmarkReview to BookmarkReview--><g class="link" data-entity-1="BookmarkReview" data-entity-2="BookmarkReview" data-source-line="29" data-uid="lnk15" id="link_BookmarkReview_BookmarkReview"><path d="M791.575,707.225 C743.95,626.0625 751.725,507.5 814.9,507.5 C878.0625,507.5 889.6332,619.5939 842.0082,700.7564" fill="none" id="BookmarkReview-to-BookmarkReview-1" style="stroke:#181818;stroke-width:1.25;"/><polygon fill="#181818" points="838.2125,707.225,848.2184,700.0526,841.3756,701.8345,839.5936,694.9916,838.2125,707.225" style="stroke:#181818;stroke-width:1.25;"/><text fill="#000000" font-family="sans-serif" font-size="16.25" lengthAdjust="spacing" textLength="138.8708" x="745.525" y="496.3336">AnsweredReview</text></g><!--link Normal to Normal--><g class="link" data-entity-1="Normal" data-entity-2="Normal" data-source-line="26" data-uid="lnk12" id="link_Normal_Normal"><path d="M178.1,519.6125 C166.35,475.0125 170.5,420 190.5625,420 C210.625,420 216.6857,467.76 204.9357,512.36" fill="none" id="Normal-to-Normal" style="stroke:#181818;stroke-width:1.25;"/><polygon fill="#181818" points="203.025,519.6125,210.7261,510.0075,204.6173,513.5687,201.056,507.4599,203.025,519.6125" style="stroke:#181818;stroke-width:1.25;"/><text fill="#000000" font-family="sans-serif" font-size="16.25" lengthAdjust="spacing" textLength="259.9365" x="61.1875" y="408.8336">AnsweredCurrent / Nav enabled</text></g><!--link Panic to Panic--><g class="link" data-entity-1="Panic" data-entity-2="Panic" data-source-line="27" data-uid="lnk13" id="link_Panic_Panic"><path d="M779.4125,140.8625 C745.95,96.2625 757.775,41.25 814.9,41.25 C872.0125,41.25 888.3522,90.2641 854.8772,134.8641" fill="none" id="Panic-to-Panic" style="stroke:#181818;stroke-width:1.25;"/><polygon fill="#181818" points="850.375,140.8625,861.1272,134.8664,854.1268,135.8638,853.1293,128.8635,850.375,140.8625" style="stroke:#181818;stroke-width:1.25;"/><text fill="#000000" font-family="sans-serif" font-size="16.25" lengthAdjust="spacing" textLength="259.9365" x="685.525" y="30.0836">AnsweredCurrent / Nav enabled</text></g><!--link Normal to GMN2--><g class="link" data-entity-1="Normal" data-entity-2="GMN2" data-source-line="32" data-uid="lnk4" id="link_Normal_GMN2"><path d="M194.7375,582.9625 C201.5375,638.0125 223.3875,751.3625 291.125,813.75 C370.35,886.725 482.7875,924.4375 583.075,943.8375" fill="none" id="Normal-GMN2" style="stroke:#181818;stroke-width:1.25;stroke-dasharray:8.75,8.75;"/></g><!--SRC=[jLHDZzem4BtxLumuGQK8sbCBsafTrCDM5Lt1gfTL3yOPm4fYfxR3nx-ldJYnoRAWIhjSYCSpR-QzcR7Ek2YfeWNe7KtbWOijR6YkaUZk9YqvVFmqYInBAh8Lbl0bDYvaYixuUK9ot1Wm4XJVxWoaN24pN0f2jA46hQSgQEuFZrHmvhzN6I-NkETuy8PxARE2gimRoVE7Fv0aNri4qlpNfXe7mcyAJxp0kUA6C-lQN8VO5vvBP7AF2jCpr51Hw_kZAiedwUobzOrSpsiDhgsTa0Zi4dQ3ly2ZQT5xa9UpF2hSZrrKT-Suz7B5fAVm_SYDlnpUKvObHYQiKWg56LrAsaRVY8pLwAiyXMz27vo-yyOTnh2WUq11rxajEFIdtyYReLTa3Q5-Wcuh-YA426adiHbbkMb7xpVNt6Q7TMMC57fA4XYqI0Dt-6ddLurTCGCOIf6VW6-W4jI3ZseVoJ9u4BL_ryRngYeioca0THJTM1nemyY3i4TQhvFB-QjqNnfOpbdcvB0f3C-3Vm8-2RYWFS9XX_PRWAmZWUsajeOXapAt-o_k9YE28WL7ka-zMTN_Oaxp0ptfc6jaEcTxdUZSrwVX3YOpNtt4UnPurlYUxgjSegVcDg6szBCEzgasFHPU9OTXzyEzWdu_u6-5sbKzQBc3RlOytC3Gfi0ZrqQx0Lb8sA90PVUX6u-R4p3hT_oywjS4wJsrRoHAphFklVT3pcMbOTqzLH7viPVbugLJHg2jTYrLBSvLVTz1kR0ZrfYZrasdmxhy0m00]--></g></svg>